<svg id="Layer_1" xmlns="http://www.w3.org/2000/svg" viewBox="0 0 370.2 83.6"><style>.st0{fill:#f58220}.st1{fill:none}.st2{fill:#fff}</style><path class="st0" d="M111.8 17.1c2.7-1.2 5.4-3.4 5.4-7.9v-.1c0-2.2-.8-4-2.2-5.4-1.9-1.9-5-3-8.9-3H91.6v34h15.1c7.4 0 12.3-3.4 12.3-9.3v-.1c.1-4.6-3.1-7-7.2-8.2zm-6.3-1.2H95.4V4.2h10.3c4.9 0 7.5 2.2 7.5 5.5v.1c.1 4-3.1 6.1-7.7 6.1zm9.7 9.3c0 3.8-3.2 6.1-8.4 6.1H95.4v-12h10.7c6 0 9.1 2.1 9.1 5.9zm7.9 9.5h3.8V.7h-3.8zm24.8.6c5.7 0 10.5-2.4 13.6-5.2V16.6h-14V20h10.3v8.5c-2.3 1.9-5.9 3.4-9.8 3.4-8.3 0-13.5-6-13.5-14.1v-.1c0-7.6 5.4-13.9 12.9-13.9 4.8 0 7.7 1.6 10.3 3.9l2.5-2.9c-3.4-2.9-6.9-4.5-12.7-4.5-10.2 0-17 8.2-17 17.6v.1c.1 9.5 6.7 17.3 17.4 17.3z"/><path class="st1" d="M219.8 10.2h-5v6.7h4.9c2.7 0 4.4-1.2 4.4-3.3v-.1c0-2.2-1.7-3.3-4.3-3.3zm-34.7-.2c-4.3 0-7 3.6-7 7.6v.1c0 4 2.8 7.7 7.1 7.7s7-3.6 7-7.6v-.1c.1-4-2.7-7.7-7.1-7.7zm64.7 12.1h6.2l-3.1-8.3z"/><path class="st0" d="M349.7 25.4v-3.7h16.6v-8.2h-16.6V10h17.8V.7h-29v13.9h-16.2v7.3h5.8v3.4c-.9.5-1.9.8-3.9.8-4.8 0-8.1-3.3-8.1-8.1v-.1c0-4.6 3.2-8 7.6-8 2.8 0 5.3 1.1 7.5 3l6.4-7.7C333.9 2 329.2.1 323.4.1c-9.1 0-16.1 5.4-18.2 13.2V.8h-11.3v15L281.8.8h-10.6V31L258.4.5h-11.3l-12.9 30.9-5.6-8.2c4.1-2 6.7-5.4 6.7-10.4v-.1c0-3.5-1.1-6-3.1-8.1C229.8 2.2 226 .7 220 .7h-16.6v14.4C202.2 6.5 194.7 0 185.1 0c-10.5 0-18.6 7.9-18.6 17.7v.1c0 9.9 8 17.6 18.5 17.6 9.6 0 17.1-6.6 18.4-15.2v14.5h11.4V25h2.4l6.4 9.7H245l1.7-4.6h11.9l1.8 4.6h22V19L295 34.7h10.1V22.3c2.1 8 9.5 13.1 18.5 13.1 6 0 11-2 14.7-4.9v4.1h29.2v-9.3h-17.8v.1zm-157.4-7.6c0 4-2.7 7.6-7 7.6-4.4 0-7.1-3.6-7.1-7.7v-.1c0-4 2.7-7.6 7-7.6s7.1 3.7 7.1 7.8zm31.8-4.2c0 2.1-1.7 3.3-4.4 3.3h-4.9v-6.7h5c2.6 0 4.3 1.1 4.3 3.4zm25.7 8.5l3.1-8.3 3.1 8.3h-6.2zM117.6 60c3.5-1.5 7-4.5 7-10.2v-.1c0-2.8-1-5.2-2.8-7-2.5-2.4-6.5-3.9-11.5-3.9H91.6v44H111c9.6 0 16-4.5 16-12v-.1c0-6.1-4.2-9.1-9.4-10.7zm-8.2-1.6h-13V43.2h13.4c6.3 0 9.8 2.8 9.8 7.2v.1c-.1 5.2-4.2 7.9-10.2 7.9zM122 70.5c0 4.9-4.2 7.9-10.8 7.9H96.4V62.9h13.9c7.7 0 11.7 2.8 11.7 7.6zm10.2 12.3h4.9v-44h-4.9zm31.5.7c7.4 0 13.6-3.1 17.7-6.7V59.3h-18.2v4.5h13.4v11c-3 2.5-7.7 4.4-12.7 4.4-10.7 0-17.4-7.8-17.4-18.3v-.1c0-9.8 7-18.1 16.7-18.1 6.2 0 10 2.1 13.4 5l3.2-3.8c-4.4-3.7-9-5.8-16.4-5.8-13.2 0-22.1 10.7-22.1 22.8v.1c0 12.5 8.6 22.5 22.4 22.5zm23.4-.7h14.8v-44h-14.8z"/><path class="st1" d="M304.5 66.4h8.1l-4.1-10.7zm-82-14.8H220V70h2.5c6.7 0 11.1-2.8 11.1-9.1v-.1c-.1-6.4-4.4-9.2-11.1-9.2z"/><path class="st0" d="M351.5 54.4c-4.7-.9-5.9-1.6-5.9-2.8v-.1c0-1.1 1-1.8 3.2-1.8 4.1 0 9.1 1.3 13.2 4.3l7.2-9.9c-5.1-4-11.4-6-19.9-6-12.1 0-18.7 6.5-18.7 14.8v.1c0 9.3 8.7 12.1 18.5 14.2 4.7.9 6.1 1.6 6.1 2.9v.1c0 1.2-1.1 1.9-3.8 1.9-5.2 0-10.6-1.5-15.4-5.2l-5.6 6.6-14.6-35h-14.6l-15.4 36.8v-4.5h-23.4V66h21.5V55.4h-21.5v-4.5h23.1V38.8H248v18.1c-1.5-11-10.1-18.1-26-18.1h-16.8v44h16.3c16.1 0 24.9-7.6 26.5-18.7v18.7h50.5l2.3-5.9h15.4l2.3 5.9h16l-1.4-3.3c5 2.7 11.1 4.1 17.7 4.1 11.8 0 19.4-5.7 19.4-14.9v-.1c.1-8.9-7.4-12.2-18.7-14.2zm-118 6.4c0 6.4-4.3 9.1-11.1 9.1H220V51.5h2.5c6.7 0 11.1 2.8 11.1 9.1l-.1.2zm71 5.6l4-10.7 4 10.7h-8zM81.6 82.2V.6H0v81.6h81.6zM70.9 32.8h-7.7c-.2-1-.4-2-.8-2.8-3-5.7-11.4-5.8-14.9-.6v25.5c0 5.2 3 9.8 9.4 9.8v7.6H24.5v-7.6c6.4 0 9.4-4.6 9.4-9.8V29.4c-3.5-5.2-11.8-5.1-14.9.6-.4.8-.7 1.8-.8 2.8h-7.7V12.1h60.3v20.7h.1z"/><path class="st2" d="M71 33.2h-7.7c-.2-1-.4-2-.8-2.8-3-5.7-11.4-5.8-14.9-.6v25.5c0 5.2 3 9.8 9.4 9.8v7.6H24.6v-7.6c6.4 0 9.4-4.6 9.4-9.8V29.8c-3.5-5.2-11.8-5.1-14.9.6-.4.8-.7 1.8-.8 2.8h-7.7V12.5H71v20.7z"/></svg>